<svg width="17" height="24" viewBox="0 0 17 24" fill="none" xmlns="http://www.w3.org/2000/svg">
<path d="M13.2991 23.0089C10.9825 23.0089 8.90312 21.5729 8.06017 19.3914L6.96837 16.569C6.85638 16.3126 6.73741 16.1467 6.61143 16.0696C6.48468 15.9925 6.27937 15.954 5.99554 15.954H5.50952L5.22181 18.34C4.89986 21.0051 2.6626 23.0089 0.00775146 23.0089L2.23723 4.66816C2.56072 2.003 4.79953 0 7.45516 0L5.88978 12.8956H6.20863C6.47224 12.8956 6.68453 12.8547 6.84705 12.7729C7.00881 12.6911 7.17132 12.5425 7.33308 12.327L9.61699 9.16251C10.5533 7.86572 12.0417 7.09502 13.6288 7.08637L16.3 7.07065L11.8924 12.7423C11.6894 13.0089 11.467 13.2448 11.2236 13.4493C10.9802 13.6545 10.7267 13.8338 10.4638 13.9872C10.6769 14.1617 10.8612 14.3639 11.0183 14.5943C11.1754 14.8247 11.3146 15.0889 11.4359 15.3862L14.597 23.0097H13.2991V23.0089Z" fill="#0A0A0A"/>
</svg>
